PathFileType	4	(X/Y/Z)	/Users/itak/Documents/Research/Walk-IL/dataset/trc/00155_00007.trc
DataRate	CameraRate	NumFrames	NumMarkers	Units	OrigDataRate	OrigDataStartFrame	OrigNumFrames
100.000000	100.000000	4	53	mm	100.000000	423	565
Frame#	Time	RPSI			LPSI			L3			STRN			T10			C7			CLAV			RBAK			LBAK			LSHO			LUPA			LAEL			LAOL			LWTS			LWPS			LFRA			LIFD			LHPS			LHTS			RSHO			RUPA			RAEL			RAOL			RWTS			RWPS			RFRA			RIFD			RHTS			RHPS			RBHD			LFHD			RFHD			LBHD			LHIP			RHIP			RASI			LASI			LKNE			LTHI			LANK			LTIP			LTOE			LMT1			LMT5			LHEE			RKNE			RTHI			RANK			RTIP			RTOE			RMT1			RMT5			RHEE			
		X1	Y1	Z1	X2	Y2	Z2	X3	Y3	Z3	X4	Y4	Z4	X5	Y5	Z5	X6	Y6	Z6	X7	Y7	Z7	X8	Y8	Z8	X9	Y9	Z9	X10	Y10	Z10	X11	Y11	Z11	X12	Y12	Z12	X13	Y13	Z13	X14	Y14	Z14	X15	Y15	Z15	X16	Y16	Z16	X17	Y17	Z17	X18	Y18	Z18	X19	Y19	Z19	X20	Y20	Z20	X21	Y21	Z21	X22	Y22	Z22	X23	Y23	Z23	X24	Y24	Z24	X25	Y25	Z25	X26	Y26	Z26	X27	Y27	Z27	X28	Y28	Z28	X29	Y29	Z29	X30	Y30	Z30	X31	Y31	Z31	X32	Y32	Z32	X33	Y33	Z33	X34	Y34	Z34	X35	Y35	Z35	X36	Y36	Z36	X37	Y37	Z37	X38	Y38	Z38	X39	Y39	Z39	X40	Y40	Z40	X41	Y41	Z41	X42	Y42	Z42	X43	Y43	Z43	X44	Y44	Z44	X45	Y45	Z45	X46	Y46	Z46	X47	Y47	Z47	X48	Y48	Z48	X49	Y49	Z49	X50	Y50	Z50	X51	Y51	Z51	X52	Y52	Z52	X53	Y53	Z53	

424	4.23	299.2551574707031	1105.549438476562	285.1632080078125	433.3466796875	1112.40771484375	271.6802978515625	364.9934387207031	1140.66796875	268.83447265625	388.0869445800781	1351.367797851562	479.5880737304688	347.2568359375	1288.007446289062	236.4694061279297	363.7716369628906	1581.894287109375	245.1103820800781	387.0908813476562	1483.531005859375	433.6236267089844	269.2026672363281	1395.639038085938	215.6550140380859	462.6517639160156	1561.270751953125	222.2982788085938	545.08544921875	1551.908081054688	295.4547729492188	610.9996337890625	1421.497924804688	259.5801391601562	638.9086303710938	1204.703491210938	257.0812072753906	564.859375	1191.71875	210.0110168457031	634.0021362304688	941.373779296875	353.6619262695312	636.1962890625	920.1016845703125	267.0468139648438	650.6356811523438	1088.046142578125	266.3733825683594	619.7444458007812	747.1273193359375	362.1146545410156	645.14794921875	843.8677368164062	290.5528869628906	648.5013427734375	851.656982421875	359.6195983886719	195.4671936035156	1568.828491210938	330.0623168945312	128.8857574462891	1494.72802734375	328.4898681640625	110.1632766723633	1199.363037109375	348.6048889160156	205.5185546875	1196.860961914062	328.3066101074219	148.1872406005859	972.451904296875	514.8062133789062	106.0679931640625	948.5528564453125	446.7215576171875	99.71071624755859	1129.019775390625	382.2550354003906	170.2305755615234	780.90576171875	557.4652709960938	147.698974609375	867.7300415039062	554.9173583984375	110.2532730102539	852.5109252929688	494.1744689941406	295.1282958984375	1759.737060546875	295.44189453125	447.167724609375	1825.879028320312	441.7433471679688	319.3314819335938	1826.715087890625	460.4881286621094	428.1536865234375	1764.471923828125	269.5044860839844	555.8400268554688	1033.659423828125	360.3208923339844	197.7227783203125	1006.655334472656	420.5116271972656	254.7096557617188	1087.738525390625	499.6896057128906	518.2146606445312	1098.959594726562	466.5832214355469	552.0789184570312	551.2206420898438	520.472900390625	573.602294921875	686.1812744140625	453.7644653320312	564.1670532226562	33.01029586791992	536.1935424804688	586.7488403320312	290.8052978515625	489.3121643066406	490.4400329589844	44.61132431030273	760.462646484375	463.8277282714844	48.50462341308594	679.1195678710938	582.1583251953125	36.50614166259766	662.30615234375	507.3551330566406	34.20398712158203	464.0236206054688	240.5373992919922	510.0976867675781	405.4026794433594	215.3437957763672	792.3091430664062	437.6729736328125	179.7254486083984	112.2848129272461	49.337646484375	211.0288543701172	400.2030029296875	318.4853515625	302.9052429199219	36.14824676513672	223.5304718017578	321.4935913085938	49.30986404418945	153.4451446533203	202.7533569335938	41.81379699707031	160.9212341308594	210.2311553955078	153.8104858398438	-6.373605728149414	
425	4.24	303.7752990722656	1106.004272460938	291.3453369140625	437.9518127441406	1113.475708007812	278.9697875976562	369.6039428710938	1141.63427734375	275.5242309570312	391.1347351074219	1352.3408203125	486.56298828125	351.9660339355469	1289.010864257812	243.2079620361328	368.4549865722656	1582.878051757812	251.8809661865234	390.4933776855469	1484.477783203125	440.5547180175781	273.9960632324219	1396.716430664062	221.7976531982422	467.4937438964844	1562.158203125	229.7360687255859	549.388671875	1552.804931640625	303.4654846191406	615.7568969726562	1422.44482421875	268.2822875976562	644.106201171875	1205.66845703125	266.7283935546875	570.4951171875	1192.385009765625	219.0045623779297	638.7830810546875	943.0478515625	365.0386352539062	641.8411865234375	921.1196899414062	278.5897216796875	655.9675903320312	1089.084838867188	276.8235473632812	625.1549682617188	748.9081420898438	374.9131164550781	650.7699584960938	845.095703125	302.8094482421875	653.484130859375	853.4434814453125	371.8299255371094	199.6216278076172	1569.9443359375	335.8925170898438	132.9703674316406	1495.9296875	333.8595886230469	114.0183410644531	1200.5771484375	352.5819702148438	209.3641662597656	1198.12158203125	332.7213134765625	150.7304382324219	972.0934448242188	516.9374389648438	108.8941116333008	948.9380493164062	448.3545532226562	103.2884521484375	1130.013671875	385.544921875	172.4045104980469	780.0760498046875	557.6925048828125	149.9095916748047	866.962646484375	555.9146118164062	113.0443115234375	852.3455200195312	494.9751586914062	299.6707458496094	1760.593627929688	301.341552734375	450.689208984375	1827.165405273438	448.4287109375	322.7205200195312	1827.967041015625	466.4056396484375	432.7267456054688	1765.289428710938	276.2414855957031	559.91552734375	1035.080444335938	368.4403076171875	201.5396423339844	1006.994445800781	425.9143676757812	257.7944641113281	1088.28466796875	505.5693359375	521.5438232421875	1100.104125976562	474.5570068359375	555.399169921875	550.64990234375	522.458984375	576.7324829101562	686.3574829101562	457.3760375976562	564.1815795898438	32.95974731445312	536.245849609375	588.0198364257812	290.38720703125	489.4822998046875	490.359619140625	44.15385055541992	760.8433227539062	463.9246215820312	48.46946716308594	679.3203735351562	582.3906860351562	36.30183029174805	662.4194946289062	507.3869018554688	34.18579864501953	464.0904541015625	243.3267974853516	510.5631713867188	417.2026672363281	218.7938995361328	792.920166015625	445.487060546875	181.4635620117188	118.0926284790039	54.9044189453125	213.3675689697266	401.8907470703125	329.2144470214844	302.2540588378906	36.12394714355469	224.7701416015625	322.3388671875	50.39276885986328	155.6346740722656	203.4854125976562	42.11528015136719	162.4899139404297	212.1955261230469	161.7683868408203	1.223239421844482	
426	4.25	308.1603393554688	1106.346435546875	297.3752136230469	442.4013061523438	1114.429565429688	286.1225891113281	374.09228515625	1142.5458984375	282.093505859375	394.0387573242188	1353.205932617188	493.3548583984375	356.6304931640625	1289.95751953125	249.7438201904297	373.0714111328125	1583.7998046875	258.5563354492188	393.7805480957031	1485.330444335938	447.352783203125	278.74267578125	1397.731201171875	227.73876953125	472.2763061523438	1562.985595703125	237.1004486083984	553.6136474609375	1553.615234375	311.4192504882812	620.4351196289062	1423.307739257812	276.9518432617188	649.2567138671875	1206.558837890625	276.3897399902344	576.1184692382812	1192.939697265625	227.9922332763672	643.5297241210938	944.700927734375	376.5121765136719	647.4732666015625	922.08740234375	290.2548217773438	661.2634887695312	1090.059814453125	287.3228149414062	630.6119384765625	750.6995849609375	387.8972473144531	656.3967895507812	846.2981567382812	315.2165832519531	658.4676513671875	855.2348022460938	384.1771545410156	203.6857452392578	1570.96044921875	341.5484619140625	136.9900054931641	1497.007080078125	339.0382995605469	117.8014068603516	1201.675415039062	356.5191345214844	213.0947418212891	1199.243896484375	337.0415344238281	153.3408203125	971.7779541015625	519.1513061523438	111.6679229736328	949.3274536132812	450.12451171875	106.7710342407227	1130.924926757812	388.8352966308594	174.6399383544922	779.32275390625	558.1021118164062	152.1920776367188	866.2688598632812	557.0450439453125	115.6494598388672	852.2625732421875	495.9204406738281	304.1293334960938	1761.3798828125	307.2209167480469	454.1519165039062	1828.341552734375	455.0762634277344	326.0700988769531	1829.124755859375	472.3008117675781	437.2251892089844	1766.015625	282.9472045898438	563.8750610351562	1036.382202148438	376.4106750488281	205.2878723144531	1007.435729980469	431.38818359375	260.7230834960938	1088.71142578125	511.2183227539062	524.7178955078125	1101.140258789062	482.3728942871094	558.5894165039062	549.988037109375	524.1445922851562	579.8834228515625	686.4418334960938	460.6856079101562	564.197998046875	32.88137817382812	536.2703247070312	589.33984375	290.0135803222656	489.5398864746094	490.2693176269531	43.82675170898438	761.1122436523438	464.0106811523438	48.45208740234375	679.4652709960938	582.5656127929688	36.13905334472656	662.495849609375	507.4078674316406	34.15674591064453	464.1199035644531	246.1797027587891	511.0944213867188	428.9413452148438	222.2167205810547	793.5108642578125	453.2598266601562	183.4790954589844	123.8931198120117	60.76607131958008	215.8011169433594	403.5634765625	340.0353393554688	301.4908752441406	36.06597137451172	226.2914276123047	323.2503051757812	51.52961349487305	158.2431793212891	204.268310546875	42.51584243774414	164.1255187988281	214.4676361083984	169.6094970703125	9.225468635559082	
427	4.26	312.3821716308594	1106.599975585938	303.2748718261719	446.6675109863281	1115.285034179688	293.1169128417969	378.4225158691406	1143.398559570312	288.5428161621094	396.7939147949219	1353.975219726562	499.9540100097656	361.2336120605469	1290.853149414062	256.0584716796875	377.6209716796875	1584.66259765625	265.1235046386719	396.9504699707031	1486.101440429688	454.0081787109375	283.4381408691406	1398.689819335938	233.4792785644531	476.9979858398438	1563.759155273438	244.3796539306641	557.7534790039062	1554.34912109375	319.3074645996094	625.0316772460938	1424.102172851562	285.5881958007812	654.3508911132812	1207.388305664062	286.0631713867188	581.7222290039062	1193.398315429688	236.9728546142578	648.238525390625	946.344482421875	388.0639343261719	653.0734252929688	923.0187377929688	302.0232849121094	666.511474609375	1090.98388671875	297.8649597167969	636.0433959960938	752.5046997070312	401.0334777832031	662.009765625	847.48876953125	327.7504272460938	663.4382934570312	857.0410766601562	396.6377258300781	207.6601104736328	1571.890991210938	347.0025939941406	140.943115234375	1497.972290039062	343.9931030273438	121.5329055786133	1202.6689453125	360.3843078613281	216.7621459960938	1200.245849609375	341.2843322753906	155.9851531982422	971.527587890625	521.4419555664062	114.3844223022461	949.7312622070312	452.0088500976562	110.1712417602539	1131.763671875	392.09521484375	176.9064483642578	778.6575317382812	558.7117309570312	154.5145874023438	865.6569213867188	558.3187255859375	118.0672836303711	852.2680053710938	496.9952697753906	308.4765014648438	1762.103393554688	313.0895690917969	457.5557250976562	1829.40185546875	461.6858520507812	329.3817138671875	1830.188598632812	478.1744384765625	441.6441345214844	1766.657470703125	289.615478515625	567.7001953125	1037.576049804688	384.195068359375	208.9449157714844	1008.033081054688	437.0370788574219	263.5131225585938	1089.05859375	516.6607666015625	527.729736328125	1102.088989257812	489.9919738769531	561.5927124023438	549.302978515625	525.6835327148438	583.0524291992188	686.484375	463.8408813476562	564.2379760742188	32.76320266723633	536.2762451171875	590.761962890625	289.7339172363281	489.67919921875	490.1730346679688	43.60635757446289	761.26904296875	464.0986633300781	48.45805740356445	679.5521850585938	582.7088012695312	36.00427627563477	662.5481567382812	507.4529724121094	34.12079238891602	464.1161804199219	249.1272125244141	511.6737060546875	440.5828857421875	225.6280670166016	794.0888671875	460.99755859375	185.7757110595703	129.6799621582031	66.8577880859375	218.3718109130859	405.1969299316406	350.8841247558594	300.5928344726562	35.96747207641602	228.1942291259766	324.2088012695312	52.73545455932617	161.3905334472656	205.0940093994141	43.10790634155273	165.8683319091797	217.0846405029297	177.2647247314453	17.52836990356445	
